<?xml version="1.0" standalone="no"?>
<!DOCTYPE svg PUBLIC "-//W3C//DTD SVG 20010904//EN"
 "http://www.w3.org/TR/2001/REC-SVG-20010904/DTD/svg10.dtd">
<svg version="1.0" xmlns="http://www.w3.org/2000/svg"
 width="16.000000pt" height="16.000000pt" viewBox="0 0 16.000000 16.000000"
 preserveAspectRatio="xMidYMid meet">
<metadata>
Created by potrace 1.11, written by Peter Selinger 2001-2013
</metadata>
<g transform="translate(0.000000,16.000000) scale(0.006154,-0.006154)"
fill="#000000" stroke="none">
<path d="M871 2473 c-6 -10 -11 -14 -11 -10 0 4 -10 3 -21 -4 -12 -6 -19 -7
-16 -2 3 5 -3 9 -13 9 -10 0 -17 -3 -15 -6 1 -3 -3 -11 -11 -18 -11 -10 -14
-10 -14 0 -1 9 -5 8 -13 -4 -10 -12 -17 -14 -31 -6 -13 7 -17 7 -12 0 3 -5
-11 -17 -32 -25 -20 -9 -30 -16 -22 -17 12 0 11 -3 -3 -11 -9 -5 -20 -8 -25
-6 -4 3 -16 -5 -27 -16 -11 -11 -14 -17 -7 -13 6 4 12 2 12 -3 0 -6 -4 -11
-10 -11 -18 0 -11 -18 10 -25 11 -3 20 -10 20 -15 0 -5 -8 -7 -17 -4 -10 3 -8
-1 5 -8 12 -8 19 -17 16 -21 -4 -4 1 -7 10 -7 12 0 16 -5 12 -16 -3 -8 -2 -12
4 -9 6 3 10 1 10 -5 0 -6 5 -8 11 -4 7 4 10 1 7 -7 -2 -7 4 -22 13 -33 10 -10
15 -24 12 -30 -3 -6 -3 -8 1 -4 10 8 36 -14 29 -24 -2 -5 4 -8 14 -9 10 0 13
-3 6 -6 -10 -3 -10 -7 0 -18 7 -7 17 -10 22 -7 6 3 4 -2 -4 -11 -12 -16 -8
-22 12 -18 5 1 11 -7 14 -18 3 -11 12 -22 20 -25 8 -3 11 -10 8 -16 -6 -9 8
-15 29 -11 5 1 4 -4 -2 -12 -9 -11 -6 -18 13 -35 14 -12 25 -27 25 -33 0 -5 5
-7 12 -3 7 5 9 2 6 -7 -8 -20 16 -41 30 -27 8 8 9 5 5 -11 -3 -13 -1 -21 6
-21 7 0 9 -4 6 -10 -3 -5 1 -10 10 -10 9 0 14 -4 10 -9 -3 -5 4 -12 14 -16 13
-4 18 -11 14 -22 -4 -11 -2 -14 5 -9 7 4 12 2 12 -5 0 -20 42 -51 54 -39 7 7
6 14 -1 21 -13 13 -5 42 9 33 6 -4 5 3 -1 15 -7 11 -9 21 -5 21 3 0 0 8 -7 17
-12 15 -12 16 4 10 10 -4 16 -3 12 2 -3 5 -1 12 5 16 6 4 3 16 -8 33 -9 14
-11 23 -4 19 6 -5 12 -4 12 2 0 6 -6 11 -12 11 -7 0 -5 5 5 11 9 5 17 15 17
21 0 6 -7 5 -17 -3 -16 -13 -16 -11 1 15 10 16 13 25 7 22 -14 -9 -14 0 0 26
8 15 8 19 0 14 -14 -9 -14 0 -1 25 8 13 7 19 0 19 -7 0 -8 6 -1 17 5 10 5 26
0 41 -5 13 -5 21 -1 18 5 -3 8 26 7 64 -1 41 2 67 8 63 5 -3 4 4 -2 15 -15 28
-14 32 7 25 14 -5 13 -3 -3 10 -15 13 -16 16 -5 17 13 0 13 1 0 10 -13 8 -12
10 3 10 17 0 17 1 3 16 -20 19 -21 28 -3 21 8 -3 14 1 14 9 0 9 -7 13 -16 9
-12 -4 -12 -2 2 9 14 10 15 15 5 19 -10 4 -10 8 1 15 12 9 12 13 2 26 -17 20
-120 22 -140 4 -8 -8 -11 -8 -8 -2 5 8 -5 11 -28 11 -19 -1 -35 -5 -35 -10 0
-5 -6 -4 -14 2 -11 10 -17 8 -25 -6z m229 -617 c0 -3 -4 -8 -10 -11 -5 -3 -10
-1 -10 4 0 6 5 11 10 11 6 0 10 -2 10 -4z"/>
<path d="M1230 2480 c0 -5 5 -10 11 -10 5 0 7 5 4 10 -3 6 -8 10 -11 10 -2 0
-4 -4 -4 -10z"/>
<path d="M1272 2479 c-13 -5 -21 -13 -18 -18 3 -5 -3 -7 -14 -4 -16 4 -20 1
-18 -20 1 -15 7 -23 14 -20 9 3 11 -5 7 -27 -2 -18 -1 -30 5 -27 5 4 9 0 9 -8
0 -8 -4 -12 -8 -10 -4 3 -10 -2 -13 -11 -3 -9 -2 -12 5 -8 6 4 9 -1 7 -13 -2
-11 3 -27 11 -37 12 -15 12 -16 -5 -9 -15 5 -17 4 -8 -8 6 -8 9 -26 7 -41 -2
-16 1 -28 7 -28 5 0 10 -5 10 -11 0 -5 -4 -7 -10 -4 -18 11 -11 -14 8 -25 16
-11 16 -11 0 -6 -10 3 -18 1 -18 -4 0 -6 6 -10 13 -10 8 0 7 -4 -3 -10 -10 -6
-11 -10 -2 -10 6 0 12 -5 12 -11 0 -5 -6 -7 -12 -3 -7 4 -4 -3 6 -15 17 -18
17 -21 3 -15 -9 3 -17 2 -17 -4 0 -6 5 -12 12 -14 7 -3 8 -9 3 -19 -13 -20
-14 -79 -1 -79 5 0 1 -7 -10 -16 -10 -8 -13 -13 -6 -9 6 3 12 1 12 -4 0 -6 -4
-11 -8 -11 -5 0 -7 -13 -4 -30 3 -19 0 -30 -7 -30 -7 0 -10 -4 -6 -9 3 -5 1
-12 -5 -16 -7 -4 -6 -13 1 -27 9 -16 8 -19 -2 -13 -9 6 -11 3 -6 -8 3 -9 2
-19 -4 -23 -6 -4 -5 -12 3 -22 11 -13 11 -14 -1 -7 -11 6 -13 4 -8 -8 4 -12 1
-17 -11 -18 -14 0 -14 -2 2 -8 18 -7 18 -8 2 -14 -12 -5 -15 -13 -11 -27 4
-12 1 -27 -5 -35 -7 -8 -9 -15 -5 -15 4 0 1 -8 -6 -17 -12 -14 -12 -16 0 -9 9
6 12 5 9 -5 -3 -8 1 -19 9 -24 8 -6 15 -20 16 -32 0 -12 4 -20 9 -17 4 2 12
-6 19 -18 7 -13 21 -31 32 -40 16 -15 23 -16 35 -5 13 10 14 9 8 -1 -7 -11 -4
-12 13 -3 11 7 21 16 21 21 0 6 6 10 14 10 7 0 20 8 27 18 12 15 12 16 -1 7
-10 -6 -9 -4 1 6 14 13 15 19 6 29 -9 10 -9 11 2 5 11 -6 13 -3 9 13 -4 12 0
26 8 33 15 12 9 33 -7 24 -5 -4 -9 -2 -9 4 0 5 5 11 12 13 6 2 12 14 13 26 1
11 -2 19 -7 16 -12 -8 -10 10 4 24 9 9 9 12 0 12 -7 0 -12 5 -12 11 0 5 4 8 8
5 10 -6 9 24 -1 41 -4 6 -3 14 3 18 6 3 8 18 5 33 -2 15 1 30 8 34 9 6 8 8 -2
8 -11 0 -10 4 5 16 10 8 14 13 7 10 -6 -4 -14 -2 -18 4 -3 5 -1 10 6 10 8 0 8
4 -1 15 -9 11 -9 15 -1 15 9 0 9 5 1 20 -6 11 -7 20 -3 20 4 0 9 11 9 25 1 14
-2 23 -7 20 -4 -3 -6 4 -4 16 3 13 10 26 17 31 10 6 9 8 -2 8 -13 0 -13 1 0
10 10 6 11 10 3 10 -7 0 -13 5 -13 11 0 5 4 8 8 5 5 -3 9 1 9 9 0 8 -4 12 -8
10 -3 -3 -9 4 -12 14 -3 14 -1 18 10 14 12 -5 12 0 -3 23 -11 15 -13 25 -6 20
9 -6 11 0 7 21 -2 16 -6 66 -7 111 -1 45 -6 82 -11 82 -5 0 -4 6 2 14 8 10 9
16 1 21 -6 3 -8 11 -5 16 8 12 -28 25 -63 24 -15 0 -30 4 -34 10 -4 5 -8 1 -8
-10 0 -16 -2 -17 -9 -5 -6 8 -7 18 -5 22 6 9 6 9 -24 -3z m138 -33 c0 -3 -4
-8 -10 -11 -5 -3 -10 -1 -10 4 0 6 5 11 10 11 6 0 10 -2 10 -4z m-135 -435 c3
-5 2 -12 -3 -15 -5 -3 -9 1 -9 9 0 17 3 19 12 6z m140 -431 c-3 -5 -12 -10
-18 -10 -7 0 -6 4 3 10 19 12 23 12 15 0z"/>
<path d="M1550 2438 c0 -10 -5 -18 -11 -18 -5 0 -7 5 -3 12 4 7 3 8 -5 4 -6
-4 -9 -11 -6 -16 3 -4 0 -10 -7 -12 -7 -3 -5 -7 6 -11 11 -5 15 -3 10 5 -4 7
-3 8 4 4 14 -9 3 -38 -12 -30 -6 3 -3 -1 7 -9 14 -11 15 -16 5 -20 -10 -4 -10
-8 2 -16 13 -10 13 -11 0 -11 -9 0 -11 -3 -4 -8 11 -8 13 -60 1 -78 -4 -7 0
-17 8 -24 9 -7 12 -17 7 -24 -4 -6 -8 -49 -7 -96 0 -48 -4 -88 -10 -92 -6 -5
-4 -8 5 -8 13 0 13 -1 0 -10 -13 -9 -13 -10 0 -10 13 0 13 -1 0 -10 -10 -6
-11 -10 -2 -10 6 0 12 -5 12 -11 0 -5 -4 -8 -8 -5 -11 6 -9 -25 3 -43 5 -9 4
-12 -3 -7 -15 9 -21 -15 -11 -42 6 -14 5 -21 0 -17 -5 3 -12 1 -16 -5 -3 -5
-1 -10 6 -10 8 0 8 -4 -1 -15 -10 -12 -10 -15 1 -15 11 0 11 -2 -1 -10 -17
-11 -11 -19 20 -25 12 -2 20 -2 17 2 -4 3 6 17 21 31 15 14 26 29 25 34 -2 4
4 5 12 2 9 -4 18 1 21 11 4 9 13 14 21 10 11 -4 14 0 10 14 -4 15 0 19 15 16
13 -3 22 2 25 15 3 11 11 20 19 20 9 0 11 6 7 18 -6 15 -5 15 10 3 9 -7 18
-11 18 -7 1 3 2 9 3 14 3 17 40 51 49 45 6 -4 8 1 4 10 -3 9 -3 16 1 15 16 -5
53 24 48 37 -3 9 0 12 10 8 7 -3 14 0 14 5 0 6 18 21 40 33 22 12 38 25 35 27
-2 3 -10 1 -18 -4 -7 -5 -4 -1 7 9 15 14 21 15 29 5 6 -9 7 -6 4 9 -3 14 -1
20 8 17 7 -3 15 2 19 11 3 9 10 13 16 10 5 -3 10 -1 10 5 0 6 4 9 9 6 5 -3 13
0 18 7 13 17 9 43 -6 39 -8 -2 -11 3 -8 13 4 9 1 15 -7 15 -7 0 -19 11 -26 25
-7 13 -18 21 -23 18 -6 -4 -8 0 -4 11 4 11 3 15 -4 11 -5 -4 -19 3 -30 16 -12
14 -19 17 -19 8 0 -11 -2 -11 -10 1 -5 8 -10 11 -10 5 0 -5 -7 -2 -14 8 -8 10
-23 19 -35 20 -12 1 -21 6 -21 12 0 5 -5 3 -10 -5 -9 -13 -10 -13 -11 0 -1 8
-1 19 0 23 1 5 -3 6 -9 2 -6 -3 -8 -11 -5 -16 3 -5 -1 -6 -9 -3 -9 3 -16 10
-16 16 0 5 -8 7 -19 3 -10 -3 -29 -1 -42 4 -13 5 -18 10 -10 10 8 1 12 4 8 7
-3 3 -11 2 -18 -2 -18 -11 -59 -11 -52 0 3 5 -8 7 -26 4 -18 -3 -34 -1 -37 4
-3 5 -10 5 -16 2 -6 -4 -14 0 -19 7 -7 11 -9 10 -9 -3z m520 -244 c0 -8 -19
-13 -24 -6 -3 5 1 9 9 9 8 0 15 -2 15 -3z m-520 -334 c0 -5 -2 -10 -4 -10 -3
0 -8 5 -11 10 -3 6 -1 10 4 10 6 0 11 -4 11 -10z"/>
<path d="M490 2291 c-13 -11 -29 -17 -34 -14 -5 3 -7 2 -4 -3 3 -5 0 -15 -8
-22 -8 -7 -14 -9 -14 -5 0 4 -7 -1 -15 -11 -8 -11 -15 -16 -15 -11 0 5 -6 0
-14 -11 -8 -10 -20 -19 -28 -19 -7 0 -13 -7 -13 -15 -1 -8 -7 -14 -14 -12 -7
1 -10 -2 -6 -8 3 -6 -4 -14 -17 -19 -13 -6 -17 -10 -11 -10 9 -1 8 -7 -4 -20
-9 -11 -20 -18 -25 -15 -4 3 -5 -3 -1 -12 5 -13 3 -16 -9 -11 -11 4 -15 0 -14
-11 2 -9 -6 -25 -16 -36 -10 -11 -16 -26 -14 -32 3 -7 -2 -18 -9 -24 -8 -7
-12 -16 -9 -21 3 -5 1 -9 -4 -9 -4 0 -8 -18 -7 -39 1 -29 -2 -38 -12 -34 -9 3
-11 0 -7 -10 3 -8 1 -18 -5 -22 -7 -4 -8 -12 -1 -24 5 -10 6 -21 3 -25 -12
-11 -13 -45 -2 -51 6 -5 5 -15 -5 -30 -15 -22 -14 -25 2 -34 9 -6 12 -11 5
-11 -7 0 -10 -7 -6 -16 3 -8 11 -13 19 -10 7 3 15 0 18 -7 3 -8 5 -9 5 -1 1
14 69 7 88 -8 9 -7 18 -6 30 3 10 8 14 9 10 2 -4 -6 -3 -14 2 -17 5 -4 13 -1
17 5 4 8 3 9 -4 5 -8 -5 -10 -1 -5 10 5 14 7 15 15 1 5 -10 15 -14 25 -10 9 4
14 2 10 -3 -3 -6 13 -10 38 -9 26 0 41 4 37 10 -3 6 0 5 9 -1 8 -6 26 -9 42
-8 19 2 25 -1 20 -9 -4 -7 1 -6 11 2 14 12 19 12 26 2 6 -11 9 -11 13 0 5 12
6 12 6 0 1 -11 4 -11 18 0 11 10 14 10 9 2 -9 -16 -1 -16 24 -3 15 8 21 6 29
-7 8 -14 11 -15 11 -3 1 12 3 12 14 -3 11 -14 15 -15 19 -3 4 11 14 12 39 7
24 -6 37 -4 47 6 10 11 16 11 26 3 8 -7 19 -9 24 -5 7 4 9 -1 5 -12 -4 -11 -3
-14 3 -7 8 11 17 11 53 3 9 -3 14 3 14 14 -2 18 -1 18 19 0 11 -10 17 -13 14
-7 -4 7 0 15 9 18 10 4 13 2 8 -6 -5 -7 -2 -9 9 -5 9 3 18 1 21 -6 2 -7 5 -2
5 11 1 12 5 22 11 22 5 0 7 -8 4 -17 -5 -15 -4 -16 5 -3 8 11 7 18 -4 26 -8 6
-15 17 -15 23 0 7 -4 10 -9 7 -11 -7 -23 22 -14 37 4 6 0 8 -10 4 -15 -6 -21
2 -14 19 1 4 -8 10 -20 15 -15 5 -21 14 -17 24 4 9 0 15 -9 15 -10 0 -15 7
-12 19 2 12 -3 21 -15 24 -10 2 -24 15 -31 28 -12 23 -11 23 7 9 18 -14 18
-14 5 3 -7 9 -20 17 -28 17 -13 0 -13 2 -2 17 11 13 11 15 1 9 -17 -10 -42 22
-34 44 5 13 4 13 -12 1 -9 -8 -16 -10 -15 -5 5 15 -12 54 -22 54 -5 0 -9 5 -9
11 0 6 -13 24 -30 41 -16 16 -30 36 -30 44 0 8 -4 14 -9 14 -5 0 -11 9 -14 20
-4 14 -10 18 -23 13 -11 -4 -15 -3 -10 5 3 6 1 14 -5 17 -5 4 -8 14 -5 22 3 8
2 11 -4 8 -5 -3 -16 8 -25 25 -8 16 -20 30 -26 30 -6 0 -7 5 -3 12 5 8 2 9 -9
5 -9 -3 -16 -3 -16 1 4 26 -3 34 -23 29 -22 -6 -22 -6 -4 8 11 8 16 15 10 15
-5 0 -20 -9 -34 -19z m-185 -661 c3 -5 1 -10 -4 -10 -6 0 -11 5 -11 10 0 6 2
10 4 10 3 0 8 -4 11 -10z m119 -8 c3 -5 -1 -9 -9 -9 -8 0 -12 4 -9 9 3 4 7 8
9 8 2 0 6 -4 9 -8z m482 -28 c18 -15 18 -15 -2 -5 -12 6 -24 7 -28 4 -3 -3 -6
-1 -6 5 0 16 12 15 36 -4z"/>
<path d="M2020 2286 c0 -2 8 -10 18 -17 15 -13 16 -12 3 4 -13 16 -21 21 -21
13z"/>
<path d="M2075 2122 c-3 -8 -2 -18 1 -23 3 -5 2 -8 -3 -7 -11 3 -53 -25 -53
-35 0 -4 6 -5 13 -1 7 4 9 3 4 -2 -5 -5 -13 -10 -18 -10 -5 -1 -14 -2 -19 -3
-5 0 -9 -7 -7 -13 1 -7 -4 -12 -10 -10 -7 1 -13 -3 -13 -9 0 -6 -9 -22 -20
-36 -11 -14 -20 -20 -20 -13 0 16 -15 3 -15 -13 -1 -7 -6 -11 -13 -10 -7 2
-12 -2 -12 -8 0 -15 -72 -89 -81 -83 -4 2 -10 0 -14 -6 -3 -5 -1 -10 5 -10 6
0 -3 -12 -22 -27 -18 -16 -35 -31 -36 -36 -2 -4 -9 -4 -15 0 -6 4 -8 0 -4 -10
3 -9 0 -18 -9 -21 -9 -3 -12 -1 -9 4 3 6 4 10 0 10 -3 0 -10 -12 -15 -26 -6
-14 -14 -23 -19 -19 -5 3 -12 1 -16 -5 -3 -5 -1 -10 6 -10 7 0 -8 -13 -32 -30
-24 -16 -45 -34 -45 -40 -1 -5 -2 -15 -3 -21 0 -5 -5 -7 -11 -4 -5 3 -8 0 -5
-7 4 -9 27 -13 75 -13 40 0 70 -4 70 -10 0 -5 5 -3 10 5 9 13 10 13 10 0 0
-13 1 -13 10 0 8 13 10 13 10 1 0 -12 3 -12 12 -3 9 9 16 8 32 -6 11 -9 16
-12 13 -5 -5 8 0 11 13 10 12 -1 19 -6 16 -14 -7 -17 -1 -16 18 3 9 8 16 11
16 5 0 -15 27 -14 33 2 4 8 6 7 6 -3 1 -17 51 -22 51 -5 0 6 4 4 9 -4 6 -10
10 -10 16 -1 5 8 12 7 25 -5 12 -11 20 -13 25 -6 3 6 11 11 16 11 6 0 8 -4 5
-8 -3 -5 1 -9 9 -9 8 0 12 4 9 9 -3 4 0 8 5 8 6 0 11 -5 11 -10 0 -7 6 -7 20
0 15 8 20 8 20 -1 0 -9 3 -9 14 0 11 9 16 9 22 0 5 -8 3 -9 -6 -4 -9 6 -11 4
-5 -5 6 -10 11 -9 22 5 11 16 13 17 13 3 0 -9 5 -20 12 -24 7 -5 8 -3 3 6 -6
10 -1 12 18 8 15 -3 24 -2 22 3 -3 4 3 6 12 4 10 -2 22 -4 26 -4 5 -1 5 -6 1
-13 -5 -7 -3 -8 7 -2 19 12 51 16 45 6 -3 -5 1 -9 9 -9 8 0 12 4 9 8 -2 4 5 7
16 6 11 -1 20 -6 20 -12 0 -5 5 -3 10 5 5 8 10 10 10 4 0 -17 30 -12 31 5 0
12 3 11 9 -4 5 -11 9 -15 9 -8 1 7 7 10 14 7 8 -3 14 2 14 10 0 8 -5 12 -11 9
-6 -4 -5 1 3 10 11 15 11 17 -2 17 -10 0 -14 8 -12 25 1 14 -2 25 -6 25 -5 0
-9 9 -9 19 0 10 -7 21 -15 25 -8 3 -12 12 -9 20 3 8 -4 25 -15 38 -12 12 -19
28 -17 34 3 7 -2 18 -10 24 -8 7 -14 19 -14 28 0 8 -3 13 -6 9 -4 -3 -13 0
-20 8 -17 17 -18 28 -1 20 6 -4 2 2 -10 13 -13 11 -23 28 -23 37 0 9 -3 14 -7
12 -5 -3 -14 1 -21 9 -10 11 -10 14 0 14 9 0 9 3 -2 9 -8 6 -18 7 -24 4 -5 -3
-6 -1 -2 5 3 6 -5 22 -19 36 -14 15 -23 31 -20 36 3 6 -1 10 -9 10 -9 0 -16 5
-16 11 0 5 -6 7 -12 3 -10 -6 -10 -4 0 8 11 14 10 17 -9 23 -17 6 -19 9 -8 16
10 6 8 9 -8 9 -13 0 -22 3 -22 8 3 20 -3 27 -26 27 -14 0 -27 -6 -30 -13z"/>
<path d="M1829 1873 c-13 -16 -12 -17 4 -4 9 7 17 15 17 17 0 8 -8 3 -21 -13z"/>
<path d="M1759 1803 c-13 -16 -12 -17 4 -4 9 7 17 15 17 17 0 8 -8 3 -21 -13z"/>
<path d="M140 1719 c0 -5 5 -7 10 -4 6 3 10 8 10 11 0 2 -4 4 -10 4 -5 0 -10
-5 -10 -11z"/>
<path d="M806 1591 c-4 -5 -2 -12 3 -15 5 -4 12 -2 15 3 4 5 2 12 -3 15 -5 4
-12 2 -15 -3z"/>
<path d="M1770 1561 c0 -6 4 -13 10 -16 6 -3 7 1 4 9 -7 18 -14 21 -14 7z"/>
<path d="M135 1539 c-5 -7 -4 -10 2 -6 6 4 13 0 16 -8 4 -9 1 -12 -9 -8 -13 5
-15 -1 -10 -31 4 -27 3 -35 -6 -30 -7 5 -8 3 -3 -6 5 -8 8 -31 6 -52 -2 -45
17 -71 42 -56 12 6 17 5 17 -4 0 -9 3 -9 10 2 6 10 10 11 10 3 0 -9 7 -10 25
-3 16 6 26 6 31 -1 3 -5 11 -6 17 -2 7 5 26 8 42 7 17 -1 39 6 50 14 12 10 15
11 8 2 -21 -23 -15 -30 14 -19 20 7 29 7 31 -1 3 -8 8 -8 18 1 8 6 14 7 14 2
0 -12 53 -11 62 2 5 6 8 6 8 -1 0 -8 16 -10 45 -8 33 3 44 1 41 -8 -1 -7 -1
-10 1 -5 3 4 25 7 49 7 25 0 43 -4 40 -8 -2 -4 4 -9 15 -9 11 -1 17 2 14 7 -6
9 10 7 38 -5 9 -4 26 -5 37 -2 11 3 18 1 14 -4 -7 -12 3 -11 28 2 13 7 18 7
14 1 -3 -6 -2 -13 4 -17 5 -3 10 0 10 7 0 10 3 9 9 -1 6 -9 26 -15 48 -16 21
-1 43 -4 49 -7 6 -4 25 -5 43 -3 18 2 29 0 26 -5 -13 -21 11 -8 29 15 10 14
25 25 33 25 8 0 11 5 8 10 -3 6 -1 11 4 11 6 1 16 3 21 4 6 1 13 3 16 4 4 0 0
9 -7 18 -12 15 -12 16 4 10 15 -6 16 -4 6 16 -7 12 -21 28 -31 36 -11 7 -17
20 -13 28 4 13 3 14 -9 4 -11 -9 -16 -9 -22 0 -5 8 -3 10 7 4 8 -4 4 2 -8 14
-12 11 -27 21 -33 21 -5 0 -10 5 -10 12 0 9 -3 9 -12 0 -9 -9 -16 -8 -30 5
-10 9 -18 12 -18 7 0 -5 -9 -10 -19 -10 -11 0 -17 4 -15 8 3 4 0 8 -5 8 -6 0
-11 -5 -11 -11 0 -5 -5 -7 -12 -3 -16 10 -317 11 -311 1 3 -5 -3 -4 -14 1 -12
7 -25 7 -36 1 -9 -6 -17 -6 -17 -2 0 5 -18 8 -40 6 -26 -1 -40 2 -40 10 0 8
-3 8 -8 2 -10 -14 -42 -15 -42 -1 0 7 -3 7 -8 1 -11 -15 -36 -12 -44 5 -5 11
-7 10 -7 -5 -1 -16 -3 -17 -10 -6 -8 12 -13 12 -24 3 -11 -10 -17 -9 -27 3
-14 17 -35 21 -25 5 3 -6 -1 -7 -9 -4 -9 3 -16 10 -16 16 0 5 -7 2 -16 -6 -20
-20 -30 -21 -14 -1 15 18 -1 20 -18 3 -9 -9 -12 -9 -12 1 0 10 -3 11 -13 2
-10 -7 -17 -7 -24 0 -8 8 -13 7 -18 -2z"/>
<path d="M315 1539 c-4 -6 -5 -12 -2 -15 2 -3 7 2 10 11 7 17 1 20 -8 4z"/>
<path d="M1581 1493 c-8 -13 -10 -14 -11 -4 0 11 -4 10 -13 -4 -9 -11 -19 -15
-27 -10 -9 5 -11 4 -6 -4 4 -6 0 -14 -8 -17 -9 -3 -13 -11 -9 -17 4 -6 0 -8
-11 -4 -10 4 -15 3 -11 -3 3 -6 -1 -13 -9 -16 -9 -3 -16 -12 -16 -19 0 -8 -8
-16 -17 -18 -17 -4 -17 -5 0 -6 9 0 17 -6 17 -12 0 -5 -4 -7 -10 -4 -5 3 -7 0
-4 -8 3 -8 13 -14 22 -13 10 0 16 -5 14 -13 -2 -8 3 -11 13 -8 8 4 15 2 15 -4
0 -6 5 -7 12 -3 6 4 8 3 4 -4 -7 -11 39 -52 58 -52 6 1 -1 8 -16 16 -16 8 -28
17 -28 20 0 2 9 0 21 -6 11 -7 27 -9 34 -6 10 3 12 0 8 -12 -6 -14 -4 -15 9
-4 13 10 17 10 21 0 4 -10 6 -10 6 0 1 6 6 12 12 12 5 0 8 -4 5 -9 -7 -11 13
-9 32 2 6 5 12 4 12 -2 0 -5 9 -9 19 -8 11 0 17 5 15 9 -3 5 -10 5 -16 2 -7
-4 -8 -2 -4 4 9 15 12 15 30 -4 11 -11 16 -12 16 -3 0 7 6 5 13 -6 11 -14 16
-15 22 -5 5 9 4 11 -3 6 -7 -4 -12 -2 -12 3 0 15 27 14 33 -1 3 -10 8 -10 18
1 12 12 12 13 0 6 -10 -6 -12 -4 -6 4 5 9 12 7 26 -8 24 -25 37 -28 18 -4 -8
9 -9 14 -2 10 18 -11 73 -15 67 -6 -3 5 0 9 5 9 6 0 11 -4 11 -8 0 -5 7 -9 15
-9 8 0 12 4 9 9 -3 4 0 8 5 8 6 0 11 -6 11 -12 0 -9 4 -8 10 2 6 10 10 11 10
3 0 -7 5 -13 11 -13 5 0 8 4 5 8 -2 4 9 8 25 7 16 0 29 -2 29 -5 0 -3 16 -6
35 -6 19 -1 33 2 31 5 -3 4 4 7 14 7 10 0 17 -3 15 -6 -3 -5 17 -5 58 -1 5 1
5 7 2 14 -4 6 0 4 8 -5 14 -18 33 -26 24 -10 -3 4 10 7 29 8 21 0 31 -3 27
-10 -4 -6 0 -5 9 1 8 7 17 10 20 7 10 -9 88 -11 94 -2 3 4 10 6 15 3 5 -3 6 1
3 9 -4 10 -1 16 7 17 8 0 5 4 -6 9 -17 7 -17 9 -2 9 20 1 21 5 5 34 -10 19 -9
20 3 10 13 -10 15 -8 15 12 0 14 -4 25 -8 25 -4 0 -8 5 -8 11 0 5 5 7 10 4 13
-8 13 5 0 25 -7 11 -10 11 -10 2 0 -7 -5 -10 -10 -7 -6 4 -8 10 -6 14 3 4 -1
8 -9 8 -8 0 -12 -4 -9 -9 3 -4 0 -8 -5 -8 -6 0 -11 5 -11 10 0 6 -8 10 -17 10
-14 0 -15 -2 -4 -9 9 -6 4 -8 -17 -8 -17 1 -28 5 -25 10 2 4 10 4 16 1 7 -4 9
-4 5 1 -11 11 -108 13 -108 2 0 -6 -8 -3 -18 6 -10 10 -22 14 -26 10 -11 -11
-56 -11 -56 0 0 5 -7 4 -15 -3 -8 -7 -15 -8 -15 -3 0 11 -36 11 -46 0 -14 -14
-26 -7 -19 11 4 12 3 14 -5 6 -6 -6 -31 -9 -57 -6 -35 3 -44 1 -38 -8 5 -8 4
-11 -3 -6 -6 4 -9 14 -6 24 5 15 4 15 -8 2 -14 -16 -52 -20 -65 -6 -4 5 -3 7
2 3 6 -3 17 -1 25 4 11 7 8 8 -10 5 -14 -3 -29 -5 -33 -5 -5 -1 -5 -5 -2 -11
3 -6 -1 -7 -9 -4 -9 3 -13 10 -10 15 7 13 -19 7 -28 -6 -5 -6 -8 -4 -8 5 0 13
-1 13 -10 0 -9 -13 -10 -13 -10 0 0 13 -1 13 -10 0 -8 -12 -10 -12 -10 -1 0
10 -3 11 -14 2 -9 -8 -16 -8 -20 -2 -4 6 -14 7 -23 4 -11 -4 -14 -3 -9 5 5 9
1 9 -17 3 -14 -6 -29 -6 -38 0 -20 13 -31 11 -23 -3 5 -9 2 -9 -9 1 -12 9 -17
10 -17 2 0 -7 -5 -9 -10 -6 -6 4 -8 11 -5 16 4 5 4 9 1 9 -3 0 -10 -8 -15 -17z
m546 -219 c-3 -3 -12 -4 -19 -1 -8 3 -5 6 6 6 11 1 17 -2 13 -5z"/>
<path d="M298 1254 c-3 -3 -21 -6 -39 -6 -19 0 -40 -6 -48 -12 -11 -8 -13 -8
-7 2 4 6 3 12 -1 12 -5 0 -15 -6 -22 -12 -11 -10 -13 -10 -7 0 5 7 1 12 -9 12
-10 0 -13 -5 -9 -12 6 -10 5 -10 -8 -1 -19 17 -32 4 -15 -15 9 -13 9 -14 0 -8
-8 4 -13 2 -13 -4 0 -6 -4 -8 -10 -5 -5 3 -10 2 -10 -4 0 -5 7 -14 16 -19 15
-8 15 -10 -1 -15 -9 -4 -13 -11 -10 -17 3 -5 0 -10 -7 -10 -9 0 -9 -3 2 -10
13 -9 13 -10 0 -10 -13 0 -13 -2 -1 -9 11 -7 12 -13 4 -23 -6 -7 -7 -22 -3
-33 4 -11 4 -28 -1 -37 -6 -10 -5 -19 1 -23 6 -3 8 -21 6 -38 -3 -18 -3 -26 0
-19 10 23 20 12 22 -25 2 -21 12 -51 24 -67 11 -16 15 -26 7 -22 -8 4 -6 1 5
-8 10 -8 15 -20 10 -27 -5 -8 -3 -10 6 -4 10 6 12 4 6 -11 -4 -10 -4 -15 0
-12 9 9 37 -20 30 -31 -3 -5 2 -15 11 -22 14 -12 16 -12 8 0 -5 10 -4 12 3 7
7 -4 12 -16 12 -27 0 -11 3 -18 8 -16 9 5 42 -29 35 -36 -2 -3 5 -8 16 -12 12
-3 21 -12 21 -20 0 -7 9 -15 21 -18 12 -3 18 -10 14 -16 -10 -17 1 -13 16 6
12 14 12 16 -1 9 -8 -4 -6 -1 4 8 10 8 23 13 29 9 6 -4 8 2 5 14 -3 12 0 20 8
20 7 0 10 -5 7 -11 -3 -6 11 7 32 29 20 22 34 33 30 25 -3 -8 3 -3 15 13 12
15 26 25 31 22 5 -4 6 1 3 10 -5 11 -2 14 10 9 11 -4 16 -1 16 11 0 11 5 15
14 12 11 -4 13 -1 9 10 -4 11 -2 14 5 9 8 -5 12 0 12 13 0 12 5 21 11 21 5 0
7 -6 3 -12 -4 -7 4 -1 19 15 14 15 31 27 36 27 5 0 8 9 6 19 -2 13 1 18 10 15
7 -3 21 7 31 25 10 16 21 28 26 25 4 -3 8 0 8 6 0 6 5 8 10 5 6 -3 10 2 10 11
0 10 3 14 6 11 4 -4 22 9 40 29 18 19 37 35 41 35 4 1 7 5 5 10 -1 5 4 9 10 9
7 0 24 10 38 21 14 11 18 18 10 14 -8 -4 -6 1 4 9 11 9 24 16 29 16 5 0 7 7 4
14 -4 10 -1 13 9 9 7 -3 14 0 14 6 0 6 6 10 13 9 7 -2 11 5 9 16 -3 18 -2 19
15 5 16 -13 17 -13 4 3 -7 10 -17 16 -21 13 -5 -3 -11 -1 -14 4 -3 5 -25 9
-48 10 -24 1 -55 3 -70 3 -15 1 -25 5 -23 9 3 4 -4 9 -15 12 -11 3 -18 1 -15
-3 3 -5 1 -11 -5 -15 -5 -3 -10 1 -10 10 0 10 -7 15 -17 13 -10 -1 -24 1 -30
5 -8 5 -13 3 -13 -3 0 -6 -5 -8 -11 -4 -6 3 -25 7 -43 9 -18 1 -39 5 -46 10
-8 5 -11 4 -7 -2 4 -7 -5 -10 -22 -9 -16 0 -29 3 -29 6 2 20 -4 21 -17 4 -10
-13 -13 -14 -10 -3 4 10 0 16 -9 16 -8 0 -13 -4 -10 -8 2 -4 -1 -11 -7 -15 -7
-4 -9 -3 -5 4 3 6 1 14 -5 18 -6 3 -15 0 -20 -7 -7 -11 -9 -11 -9 -1 0 10 -5
10 -22 1 -18 -10 -20 -9 -15 5 4 9 2 16 -2 16 -5 0 -12 -7 -15 -16 -5 -12 -10
-14 -20 -5 -14 12 -104 9 -127 -4 -12 -8 -12 -6 0 8 12 16 12 24 -1 11z"/>
<path d="M1282 1240 c2 -9 -1 -18 -7 -19 -19 -4 -46 -35 -41 -47 3 -7 -2 -15
-11 -18 -8 -4 -13 -13 -9 -21 3 -8 1 -15 -4 -15 -5 0 -6 -7 -3 -17 4 -10 2
-14 -4 -10 -5 3 -10 -1 -10 -9 0 -9 6 -13 16 -9 12 4 12 2 -2 -9 -16 -13 -16
-14 -1 -20 16 -6 15 -8 -2 -22 -12 -10 -14 -14 -4 -11 11 3 15 -5 17 -34 1
-30 -3 -39 -15 -40 -13 0 -13 -2 3 -9 11 -5 17 -9 13 -9 -4 -1 -3 -11 1 -23 7
-18 4 -29 -13 -48 -13 -15 -15 -19 -3 -11 15 12 17 11 17 -8 0 -15 -4 -20 -12
-15 -10 6 -10 4 -2 -7 6 -8 11 -42 10 -77 0 -34 3 -62 7 -62 5 0 5 -5 2 -11
-12 -18 -12 -68 -1 -72 7 -2 6 -10 -3 -20 -7 -10 -9 -17 -3 -17 10 0 8 -61 -2
-79 -4 -5 -1 -13 5 -17 8 -5 9 -3 4 6 -6 9 -4 11 4 5 9 -5 9 -11 3 -17 -7 -7
-7 -19 -2 -33 5 -13 6 -26 3 -29 -3 -3 -6 -21 -7 -41 -1 -25 3 -35 14 -36 10
0 8 -3 -5 -9 -14 -6 -15 -9 -5 -10 12 0 12 -3 -3 -14 -16 -12 -16 -14 -1 -20
13 -5 14 -9 4 -21 -11 -13 -10 -14 2 -10 12 5 15 -1 14 -24 -1 -16 -5 -33 -9
-37 -12 -12 -8 -26 7 -21 10 4 12 -1 9 -16 -4 -18 -3 -19 6 -7 10 13 11 13 11
0 0 -13 1 -13 10 0 9 13 10 13 10 0 0 -13 1 -13 10 0 8 12 10 12 11 -5 l0 -20
9 20 c6 13 9 15 9 5 1 -9 4 -11 9 -5 4 6 18 11 32 12 88 5 87 4 87 48 0 22 -5
46 -11 54 -8 11 -8 13 2 7 6 -4 12 -2 12 3 0 6 -4 11 -9 11 -5 0 -7 10 -3 22
3 14 2 19 -6 14 -7 -4 -12 -2 -12 3 0 6 6 11 13 11 8 1 7 4 -3 9 -11 7 -15 27
-15 78 0 48 -4 72 -15 81 -8 8 -9 11 -2 7 14 -7 15 0 3 24 -5 9 -6 23 -1 31
10 17 1 42 -13 33 -6 -4 -7 -1 -1 8 12 19 12 33 -1 41 -6 5 -5 8 4 8 11 0 11
3 0 17 -10 11 -10 14 -1 9 6 -4 12 -3 12 3 0 5 -5 13 -10 16 -8 5 -7 11 1 21
9 11 9 14 -1 14 -10 0 -10 3 0 15 10 12 10 15 -1 15 -12 0 -12 2 -1 9 15 9 15
20 0 39 -7 8 -7 12 3 12 10 0 10 3 2 11 -8 8 -8 20 -3 35 6 16 6 24 -1 24 -6
0 -7 5 -4 10 4 6 10 8 15 5 11 -7 7 22 -5 32 -4 4 -5 2 0 -6 5 -10 4 -12 -3
-7 -9 5 -9 13 -2 26 6 11 9 25 8 32 -2 7 3 12 10 10 10 -2 10 2 3 17 -6 10 -7
21 -4 25 3 3 -2 6 -13 7 -17 0 -16 1 4 9 22 10 31 30 11 30 -5 0 -7 -5 -3 -12
4 -7 3 -8 -5 -4 -9 6 -9 11 1 23 15 19 20 45 6 37 -6 -4 -5 2 1 14 18 34 9 80
-19 105 l-25 22 19 -25 c11 -14 3 -8 -17 13 -35 36 -55 49 -41 25 5 -7 3 -8
-7 -3 -25 16 -50 13 -47 -5z m126 -265 c-3 -3 -9 2 -12 12 -6 14 -5 15 5 6 7
-7 10 -15 7 -18z"/>
<path d="M1805 1171 c6 -11 4 -13 -8 -8 -9 3 -19 2 -22 -3 -4 -6 -14 -7 -23
-2 -20 10 -33 10 -49 -1 -7 -5 -13 -4 -13 1 0 5 -7 9 -15 9 -8 0 -12 -4 -9 -9
3 -4 0 -8 -6 -8 -6 0 -8 -5 -5 -11 4 -6 13 -8 21 -5 8 3 13 2 12 -2 -3 -18 15
-40 29 -35 11 4 14 2 9 -5 -4 -7 2 -16 17 -21 13 -5 35 -23 50 -40 16 -20 27
-26 30 -18 3 6 6 1 6 -12 1 -16 5 -21 16 -17 8 3 14 2 14 -2 -3 -18 2 -32 12
-32 5 0 7 5 3 12 -4 7 -3 8 4 4 7 -4 12 -13 12 -20 0 -7 11 -18 25 -24 14 -6
25 -17 25 -23 0 -6 7 -8 17 -5 10 4 14 4 11 1 -8 -9 61 -77 71 -70 5 2 13 -7
19 -20 11 -23 23 -30 45 -26 5 1 6 -3 2 -9 -3 -5 -1 -10 5 -10 6 0 8 -5 4 -11
-4 -8 0 -9 15 -4 12 3 21 3 20 -2 -3 -20 2 -34 11 -28 5 3 17 -4 27 -15 35
-41 83 -49 83 -13 0 8 3 12 8 10 4 -3 8 7 9 21 0 14 7 31 15 36 8 6 12 19 10
29 -2 9 2 17 8 17 6 0 8 5 5 10 -3 6 -2 10 3 10 6 0 13 7 16 16 4 10 2 13 -7
8 -9 -6 -9 -4 -1 7 6 8 10 22 9 31 -2 11 2 15 13 11 11 -5 14 -2 10 9 -4 8 -2
21 2 29 5 7 5 18 -1 25 -6 8 -3 16 8 25 17 13 17 13 3 -6 -14 -18 -14 -19 2
-7 9 7 15 21 13 30 -1 9 3 23 9 31 9 12 8 13 -4 6 -13 -8 -13 -7 0 9 8 10 15
24 16 30 3 33 5 37 12 32 5 -3 9 1 9 9 0 8 -5 11 -10 8 -6 -4 -8 1 -4 11 6 16
3 17 -19 12 -16 -4 -23 -3 -20 3 4 6 -3 8 -16 5 -42 -9 -98 -10 -98 -2 0 5 -9
4 -19 -2 -15 -7 -23 -6 -35 5 -11 11 -15 12 -19 2 -3 -9 -8 -8 -22 3 -11 9
-16 10 -11 2 5 -8 1 -11 -13 -9 -11 2 -24 6 -27 10 -4 4 -13 2 -21 -4 -10 -9
-13 -8 -13 1 0 10 -3 10 -15 0 -12 -10 -15 -10 -15 0 0 10 -3 10 -14 1 -10 -8
-16 -9 -21 -1 -4 7 -12 7 -25 0 -10 -6 -21 -6 -24 -2 -6 10 -112 9 -122 0 -3
-4 -18 1 -32 10 -19 12 -24 13 -17 3z"/>
<path d="M2310 1160 c0 -5 5 -10 11 -10 5 0 7 5 4 10 -3 6 -8 10 -11 10 -2 0
-4 -4 -4 -10z"/>
<path d="M1083 1125 c-14 -11 -15 -14 -3 -15 13 0 13 -2 0 -9 -8 -6 -17 -8
-21 -5 -4 2 -11 -5 -14 -17 -5 -14 -13 -19 -25 -16 -13 3 -17 0 -13 -9 3 -8
-1 -14 -11 -14 -9 0 -15 -3 -15 -7 3 -20 -2 -26 -11 -13 -8 12 -10 11 -10 -7
0 -17 -5 -21 -20 -18 -11 2 -18 0 -15 -6 8 -12 -14 -34 -43 -43 -12 -4 -20
-12 -17 -17 4 -5 1 -9 -5 -9 -6 0 -8 -4 -5 -10 3 -5 1 -10 -5 -10 -6 0 -21
-11 -34 -25 -24 -26 -43 -34 -30 -13 4 7 3 8 -4 4 -6 -4 -9 -13 -5 -21 3 -9
-1 -15 -11 -15 -9 0 -16 -7 -16 -16 0 -8 -4 -13 -9 -10 -13 8 -34 -21 -25 -35
4 -8 3 -9 -5 -5 -14 9 -43 -12 -35 -25 3 -5 2 -8 -3 -7 -4 1 -38 -28 -75 -65
-38 -38 -68 -65 -68 -62 0 4 -7 0 -15 -9 -18 -17 -20 -30 -3 -20 7 4 8 3 4 -5
-4 -6 -12 -9 -17 -6 -5 4 -12 -1 -15 -9 -3 -9 -10 -13 -15 -10 -5 3 -9 0 -9
-6 0 -6 -5 -8 -11 -4 -8 4 -8 0 0 -15 7 -11 9 -21 6 -21 -4 0 7 -12 24 -26 17
-14 35 -23 41 -19 5 3 10 -1 10 -10 0 -9 4 -14 9 -11 5 3 11 -1 15 -9 3 -8 11
-15 18 -15 8 0 20 -9 28 -20 10 -14 17 -17 27 -8 11 8 12 7 7 -6 -5 -12 0 -19
15 -23 11 -3 18 -9 15 -14 -3 -5 2 -6 10 -3 10 4 16 1 16 -9 0 -8 7 -18 16
-21 15 -6 15 -4 3 11 -12 16 -11 16 8 0 12 -11 20 -24 19 -30 -2 -7 -1 -9 1
-6 2 3 19 -1 38 -9 19 -9 31 -20 28 -26 -4 -5 1 -7 10 -3 12 4 17 1 17 -9 0
-10 6 -14 15 -10 8 3 15 1 15 -4 0 -6 7 -10 15 -10 8 0 15 -5 15 -11 0 -6 9
-9 19 -6 13 3 21 -2 25 -16 4 -17 7 -18 20 -7 14 10 16 10 16 -6 0 -16 2 -17
10 -4 6 10 10 11 10 3 0 -7 3 -12 8 -12 17 3 33 -2 29 -9 -3 -4 5 -7 16 -8 12
-1 38 -3 58 -6 l36 -5 -3 54 c-3 41 -1 52 9 47 9 -6 9 -4 1 7 -6 8 -11 38 -10
67 1 30 -2 56 -7 59 -4 3 -3 11 4 19 9 11 9 14 -1 14 -10 0 -10 3 0 15 10 12
10 15 -1 15 -11 0 -11 3 1 11 11 8 12 12 2 16 -6 2 -9 9 -6 15 11 17 10 108
-1 108 -7 0 -7 3 0 8 13 9 13 72 0 72 -5 0 -3 5 5 10 8 5 10 10 5 10 -6 0 -11
9 -11 20 0 11 3 20 7 20 3 0 3 18 -1 40 -4 22 -4 40 0 40 3 0 4 23 0 50 -4 29
-2 50 3 50 5 0 4 7 -3 15 -10 12 -10 15 1 15 9 0 10 3 4 8 -10 7 -11 17 -4 78
2 18 -3 39 -11 50 -13 16 -13 17 0 12 13 -5 15 1 12 27 -5 39 -22 50 -49 30z
m-582 -652 c13 -16 12 -17 -3 -4 -17 13 -22 21 -14 21 2 0 10 -8 17 -17z"/>
<path d="M1523 1054 c-12 -26 -5 -31 17 -11 8 6 6 2 -4 -10 -12 -14 -20 -43
-23 -75 -2 -29 -8 -57 -13 -62 -13 -13 -13 -26 1 -26 5 0 7 5 3 12 -4 7 -3 8
5 4 9 -6 9 -11 -1 -23 -18 -22 -19 -46 -2 -39 11 4 12 2 2 -14 -7 -10 -16 -16
-22 -13 -5 4 -6 1 -2 -6 5 -7 15 -10 23 -6 13 4 14 3 3 -10 -7 -8 -17 -12 -24
-9 -6 3 -3 -1 7 -9 20 -16 23 -32 5 -21 -7 4 -5 -2 5 -13 14 -16 15 -23 6 -29
-8 -4 -10 -3 -5 4 4 7 2 12 -4 12 -7 0 -9 -7 -6 -16 3 -9 6 -18 6 -20 0 -3 4
-3 8 0 4 2 8 -4 8 -14 0 -10 -4 -16 -8 -14 -12 8 -9 -11 4 -24 9 -9 9 -12 -2
-12 -11 0 -11 -3 -2 -12 16 -16 15 -31 0 -22 -9 5 -9 2 1 -9 7 -9 10 -17 5
-17 -5 0 -2 -5 6 -10 10 -6 11 -10 2 -10 -15 0 -11 -20 8 -40 12 -11 12 -12 1
-5 -12 8 -12 7 -3 -11 6 -12 8 -24 4 -28 -3 -4 0 -11 7 -15 10 -7 11 -13 1
-31 -10 -19 -10 -22 2 -17 8 3 15 -1 15 -9 0 -7 -4 -11 -9 -8 -4 3 -5 -2 -2
-10 3 -9 11 -16 18 -16 6 0 4 -5 -4 -10 -12 -8 -12 -10 5 -10 17 0 17 -2 5
-10 -13 -9 -13 -10 0 -10 13 0 13 -1 0 -10 -9 -6 -11 -10 -3 -10 7 0 10 -7 7
-15 -4 -9 0 -15 7 -15 11 0 11 -3 -1 -10 -12 -8 -12 -10 5 -11 l20 0 -20 -9
c-18 -8 -18 -9 5 -9 18 -1 21 -4 12 -10 -11 -6 -10 -10 4 -15 10 -4 25 1 37
11 14 13 21 14 24 6 3 -8 10 -6 23 7 12 12 27 17 42 13 18 -4 20 -3 8 6 -13 9
-12 11 5 12 11 1 23 1 28 0 4 0 7 3 7 9 0 5 7 7 15 4 8 -4 17 1 21 10 3 9 10
16 16 16 5 0 6 -6 2 -12 -5 -9 -3 -9 9 1 9 7 14 18 10 24 -3 5 -1 7 4 4 13 -8
73 20 73 34 0 5 3 8 8 8 24 -4 42 3 42 16 0 14 12 20 34 16 5 -1 6 5 2 14 -3
9 -2 14 3 10 14 -8 41 5 41 21 0 8 7 14 16 14 9 0 12 5 8 12 -5 7 -2 9 9 5 12
-4 14 -2 10 10 -4 10 -2 14 4 10 6 -4 14 0 17 9 3 8 11 12 16 9 6 -4 10 -3 9
2 -4 21 2 33 16 33 8 0 14 3 14 8 -3 19 2 33 10 28 5 -3 12 1 15 10 4 10 2 13
-6 8 -8 -5 -9 -1 -4 12 4 10 4 15 0 11 -4 -4 -13 1 -21 11 -9 10 -11 11 -7 2
7 -13 5 -13 -9 -1 -9 7 -14 17 -11 22 3 5 2 9 -3 8 -22 -4 -33 3 -34 19 0 10
-3 12 -6 5 -3 -10 -8 -9 -19 2 -9 8 -13 19 -10 23 3 5 -1 9 -9 9 -8 0 -12 -5
-9 -11 3 -6 -7 3 -23 19 -15 17 -24 24 -19 15 5 -8 -4 -1 -20 16 -16 16 -37
33 -46 37 -10 3 -18 11 -18 16 0 5 -9 13 -20 16 -11 4 -18 11 -14 16 3 5 2 9
-3 8 -23 -4 -35 2 -29 16 3 8 2 14 -2 13 -13 -3 -47 16 -64 35 -10 11 -18 16
-18 11 0 -5 -5 -1 -11 9 -5 9 -17 17 -24 17 -8 0 -15 7 -15 16 0 8 -3 13 -7
11 -11 -7 -33 19 -25 27 3 4 -1 4 -9 1 -10 -4 -22 3 -33 20 -13 20 -20 24 -31
15 -10 -8 -13 -7 -11 7 0 12 -5 17 -17 17 -15 -2 -16 1 -5 14 10 12 10 14 1 8
-7 -4 -19 -4 -25 1 -23 14 -34 11 -45 -13z"/>
<path d="M1195 900 c-3 -5 -1 -10 4 -10 6 0 11 5 11 10 0 6 -2 10 -4 10 -3 0
-8 -4 -11 -10z"/>
<path d="M569 653 c-13 -16 -12 -17 4 -4 9 7 17 15 17 17 0 8 -8 3 -21 -13z"/>
<path d="M1225 200 c3 -5 8 -10 11 -10 2 0 4 5 4 10 0 6 -5 10 -11 10 -5 0 -7
-4 -4 -10z"/>
<path d="M1465 161 c-3 -5 -2 -12 3 -15 5 -3 9 1 9 9 0 17 -3 19 -12 6z"/>
</g>
</svg>
